<svg width="205" height="190" viewBox="0 0 205 190" fill="none" xmlns="http://www.w3.org/2000/svg">
<path d="M91.3179 0.379166C85.8274 1.63217 81.9089 3.38638 78.3322 6.18857C77.3981 6.9176 75.5983 8.26173 74.3681 9.173C73.1151 10.0843 71.1786 11.7474 70.0395 12.8865C67.6018 15.3014 66.6678 16.0304 64.663 17.0556C62.9771 17.9213 62.2709 18.4908 61.7469 19.4705C61.1545 20.6096 60.7673 23.7763 60.6306 28.5149C60.5167 32.2512 60.5622 33.2991 60.9039 34.78C61.7697 38.744 62.7037 40.6577 65.6882 44.6445C67.4879 47.0139 69.0371 48.5175 69.6978 48.5175C70.4724 48.5175 70.2218 46.1482 69.1055 43.0498C67.8069 39.3819 67.0551 35.0761 67.5335 33.8459C67.8297 33.0941 68.4903 33.4814 69.4928 35.0078C70.5407 36.6025 72.0216 39.2224 73.024 41.2956C73.3429 41.9563 73.753 42.7764 73.9352 43.1181C74.5959 44.3712 74.3909 45.7153 73.1151 48.4036C72.4544 49.7477 71.976 50.9779 72.0443 51.1602C72.1127 51.3197 72.8189 51.7753 73.6391 52.1854C75.3705 53.0511 76.1223 53.689 76.7146 54.8509C76.9652 55.3521 77.7626 56.1494 78.6283 56.7873C80.1547 57.9037 82.0912 59.8857 82.4557 60.7058C82.9113 61.6855 83.9593 63.3485 84.4377 63.8498C84.8706 64.2598 85.1895 64.351 86.3742 64.3282C87.6044 64.3282 88.1056 64.1687 90.1788 63.1435C92.4114 62.05 94.5301 60.9109 96.2844 59.8857C96.6944 59.6579 97.2184 59.4528 97.4462 59.4528C98.3575 59.4528 100.886 63.8725 100.886 65.4901C100.886 65.9913 99.7928 66.9709 99.2232 66.9709C98.6765 66.9709 97.9702 67.9505 97.7196 69.0213C97.5829 69.5908 97.469 70.8894 97.469 71.9374C97.469 75.9698 96.2616 76.8355 88.3562 78.5897C87.1488 78.8631 85.4401 79.501 83.7998 80.2983C82.2734 81.0274 81.7495 81.6197 81.3622 83.055C80.861 84.832 79.9497 86.1305 78.4233 87.2696C77.1703 88.2037 74.7098 89.525 74.2542 89.525C73.7758 89.525 67.1006 92.7373 65.6882 93.6258C65.3237 93.8764 64.8452 94.1498 64.663 94.2409C63.8428 94.6054 60.79 97.1342 59.4003 98.5695C56.3476 101.713 55.0945 104.47 55.0945 108.138C55.0945 110.462 55.5046 112.079 56.6209 114.061C57.4183 115.519 60.6761 119.278 64.2073 122.81C69.2877 127.913 70.404 128.619 73.434 128.573C75.5983 128.528 76.6691 128.072 78.0588 126.569C79.0156 125.543 79.4713 124.154 79.4713 122.331C79.4713 121.238 79.8358 121.146 80.6331 122.012C82.0001 123.47 84.0049 123.949 86.2375 123.356C89.5181 122.468 92.8215 120.076 95.3503 116.75C96.3299 115.474 98.1525 111.76 98.1525 111.054C98.1525 110.621 98.8359 109.118 99.2688 108.594C100.203 107.454 100.864 109.14 100.476 111.601C100.317 112.466 100.203 114.084 100.203 115.155C100.203 117.205 100.476 118.003 101.843 119.848C102.891 121.26 105.876 123.06 108.564 123.926C109.794 124.313 110.432 124.04 111.958 122.604C114.191 120.463 115.831 117.911 115.968 116.294C116.036 115.519 116.651 115.269 117.244 115.793C118.178 116.613 119.34 116.75 124.921 116.75C127.929 116.75 132.485 116.704 135.059 116.636L139.707 116.522L140.094 117.547C140.299 118.116 140.641 119.142 140.846 119.825C141.37 121.625 142.031 123.63 142.577 125.065C142.851 125.748 143.124 126.523 143.192 126.774C143.261 127.024 143.397 127.32 143.489 127.457C143.58 127.571 144.035 128.573 144.514 129.667C145.539 132.059 145.471 132.218 143.329 133.289C142.486 133.699 141.598 134.2 141.393 134.36C141.188 134.542 140.778 134.633 140.481 134.588C140.049 134.542 139.957 134.36 139.912 133.608C139.775 131.421 138.568 123.971 138.067 122.331C137.337 119.871 136.084 118.526 134.102 118.048C132.736 117.706 128.566 117.729 124.443 118.071C120.593 118.413 120.046 118.686 120.023 120.281C120.023 121.42 121.094 124.564 123.122 129.325C123.304 129.735 123.577 130.419 123.759 130.806C126.767 137.846 126.721 137.686 125.582 138.962C124.739 139.896 124.693 140.01 124.716 141.331C124.762 142.994 125.354 144.27 126.653 145.455C127.268 146.002 127.769 146.252 128.247 146.252C128.612 146.252 129.227 146.412 129.592 146.594C130.48 147.05 130.503 147.938 129.614 149.145C129.25 149.669 128.817 150.49 128.658 151.014C127.929 153.451 130.321 156.162 133.624 156.618C135.014 156.8 135.652 156.527 135.811 155.661C135.948 154.955 136.472 153.178 136.905 151.948C137.497 150.216 139.684 146.024 141.051 143.928C143.58 140.101 146.587 136.889 149.025 135.431C151.462 133.973 151.918 134.497 150.027 136.615C148.546 138.278 146.678 140.693 146.678 140.944C146.678 141.035 146.245 141.331 145.744 141.582C145.015 141.924 144.468 142.516 143.352 144.156C142.555 145.318 141.894 146.343 141.894 146.412C141.894 146.503 141.757 146.731 141.575 146.913C140.778 147.847 139.137 151.378 138.135 154.34C136.608 158.805 136.381 159.124 134.444 159.352C130.799 159.762 130.594 160.536 133.077 164.318C134.558 166.551 135.424 168.123 137.019 171.312C139.479 176.324 140.527 178.511 140.527 178.739C140.527 178.876 140.755 179.195 141.051 179.468L141.575 179.969L144.65 178.398C146.314 177.555 148.068 176.643 148.501 176.37C148.934 176.119 149.708 175.686 150.187 175.413C151.85 174.502 153.285 173.477 153.285 173.203C153.285 173.067 153.011 172.292 152.693 171.495C152.374 170.697 151.804 169.33 151.462 168.465C150.414 165.822 149.366 163.27 149.07 162.541C148.911 162.154 148.592 161.402 148.387 160.833C148.182 160.263 147.908 159.625 147.794 159.42C147.384 158.6 146.222 155.183 145.698 153.201C144.833 149.874 144.673 147.733 145.197 145.819C145.79 143.564 146.746 143.245 147.794 144.954C148.41 145.933 149.776 149.168 150.437 151.15C150.711 152.016 151.052 152.996 151.189 153.315C151.303 153.634 151.736 154.955 152.146 156.276C152.533 157.598 153.011 159.01 153.194 159.42C153.376 159.83 153.513 160.354 153.513 160.605C153.513 160.855 153.649 161.379 153.832 161.789C153.991 162.2 154.31 163.156 154.538 163.908C154.743 164.66 155.062 165.685 155.221 166.186C155.381 166.688 155.677 167.713 155.905 168.465C156.702 171.153 156.907 171.335 158.16 170.31C158.844 169.74 158.866 169.672 158.32 167.553C158.206 167.052 157.887 165.913 157.613 165.047C157.34 164.159 157.044 163.088 156.953 162.655C156.839 162.222 156.657 161.607 156.543 161.288C156.406 160.969 156.133 160.104 155.905 159.352C155.7 158.6 155.381 157.643 155.199 157.233C155.016 156.823 154.88 156.345 154.88 156.162C154.88 155.98 154.743 155.502 154.561 155.092C154.378 154.681 154.082 153.93 153.9 153.428C153.376 152.016 151.44 147.323 151.212 146.89C150.688 145.865 150.095 143.632 150.095 142.653C150.095 141.4 150.551 140.648 152.556 138.575C154.652 136.41 156.247 133.882 156.247 132.742C156.224 131.467 154.834 130.738 152.032 130.533C149.594 130.373 148.068 129.69 146.564 128.14C145.63 127.184 143.944 124.609 143.944 124.154C143.944 124.04 143.808 123.607 143.625 123.197C142.099 119.62 141.507 113.218 142.213 108.252C142.942 103.194 143.603 100.802 144.332 100.529C144.878 100.324 146.314 101.508 148.797 104.151C151.964 107.523 156.269 113.241 157.591 115.838C157.727 116.089 158.183 116.909 158.616 117.661C159.049 118.413 159.618 119.483 159.892 120.053C160.165 120.622 160.461 121.238 160.575 121.443C161.19 122.604 162.603 126.181 163.309 128.368C164.425 131.74 164.721 132.993 165.473 137.139C165.952 139.782 165.952 146.412 165.473 148.485C164.471 152.813 163.765 154.476 161.555 157.689C160.894 158.668 160.347 159.557 160.347 159.694C160.347 160.172 161.281 159.899 162.101 159.192C166.612 155.319 169.483 151.059 171.488 145.341C173.219 140.397 173.561 131.968 172.285 126.09C171.647 123.265 170.827 120.326 170.166 118.64C170.052 118.367 169.779 117.661 169.574 117.091C168.617 114.654 165.838 109.277 164.334 106.953C163.218 105.267 162.58 104.06 162.717 103.923C162.967 103.695 163.924 104.538 165.154 106.065C166.977 108.297 168.458 110.895 170.28 114.927C171.351 117.342 172.809 121.762 173.629 125.179C173.811 125.931 174.108 127.047 174.244 127.685C174.404 128.3 174.586 129.12 174.632 129.507C174.677 129.872 174.859 131.011 175.042 132.013C176.363 139.554 176.363 147.938 175.019 153.36C174.358 156.071 174.7 156.231 176.522 154.089C177.206 153.269 178.072 152.267 178.413 151.879C179.712 150.421 180.259 149.715 182.537 146.708C184.701 143.814 186.364 141.491 186.888 140.602C187.025 140.397 187.389 139.805 187.708 139.304C188.711 137.709 189.121 134.975 189.121 129.758C189.121 125.133 188.939 123.516 187.982 120.395C187.344 118.23 185.909 115.064 184.952 113.674C184.2 112.58 183.813 111.624 184.132 111.624C184.587 111.624 188.369 115.998 188.369 116.522C188.369 116.613 188.643 117.068 189.007 117.524C189.69 118.435 190.078 119.05 190.419 119.711C190.556 119.962 190.852 120.463 191.103 120.85C191.581 121.602 193.7 125.84 193.928 126.477C194.224 127.389 194.52 126.933 196.092 123.356C196.32 122.855 196.662 122.035 196.844 121.534C199.259 115.246 199.213 115.451 198.758 114.517C198.211 113.423 197.983 113.104 196.183 110.667C194.497 108.411 194.27 107.978 194.839 107.978C195.158 107.978 199.304 112.239 199.304 112.58C199.304 112.672 199.441 112.763 199.601 112.763C199.874 112.763 200.216 111.897 200.99 109.118C201.765 106.27 201.833 105.928 201.605 105.518C201.469 105.267 199.396 103.194 196.981 100.893C194.566 98.5923 192.31 96.4508 191.991 96.1318C190.647 94.8332 187.162 91.6665 186.865 91.5071C186.683 91.4159 186.547 91.2337 186.547 91.1198C186.547 90.6869 187.207 90.892 188.597 91.7349C189.349 92.2133 190.169 92.7145 190.374 92.8284C191.695 93.6258 196.183 96.8153 196.571 97.2481C196.639 97.3165 197.345 97.9544 198.165 98.6378C198.986 99.3213 200.261 100.46 200.99 101.189C202.38 102.511 202.722 102.625 202.722 101.759C202.722 101.486 202.858 100.529 203.041 99.663C203.451 97.681 203.952 94.3548 203.906 93.7397C203.884 93.2841 202.312 91.7121 196.798 86.6317C193.837 83.8979 192.561 82.8499 188.597 79.9338C186.683 78.5213 181.785 75.1724 181.648 75.1724C181.603 75.1724 180.919 74.7395 180.122 74.1928C179.325 73.646 178.527 73.1448 178.345 73.0537C177.844 72.8031 177.252 72.4158 175.725 71.3906C174.951 70.8894 174.199 70.411 174.016 70.3198C173.834 70.2287 173.401 69.9781 173.06 69.7503C172.718 69.5452 171.465 68.7479 170.257 67.9961C169.05 67.2443 167.774 66.4469 167.455 66.2419C167.114 66.014 166.635 65.7407 166.385 65.604C166.134 65.4673 165.655 65.1939 165.314 64.9661C164.516 64.4649 159.299 61.2298 158.798 60.9337C158.593 60.797 157.796 60.2958 157.044 59.7946C156.292 59.2934 155.495 58.7922 155.29 58.6555C154.88 58.4276 153.148 57.2202 149.412 54.6003C144.969 51.4791 139.502 46.9227 140.003 46.7633C140.299 46.6494 140.983 47.0367 142.987 48.4036C143.899 49.0415 144.833 49.6566 145.038 49.7705C145.243 49.9072 146.04 50.4084 146.792 50.9324C147.567 51.4336 148.318 51.912 148.501 52.0031C148.683 52.0943 149.161 52.3676 149.526 52.6182C149.913 52.8688 150.414 53.165 150.665 53.3017C150.916 53.4384 151.44 53.7346 151.804 53.9852C152.191 54.2358 152.647 54.5091 152.829 54.6003C153.011 54.6914 153.649 55.0331 154.219 55.3749C157.317 57.1746 160.689 58.9516 166.612 61.8905C169.255 63.2119 171.556 64.3737 171.738 64.4876C171.921 64.6016 172.239 64.761 172.422 64.8294C173.037 65.08 180.031 68.5884 180.737 68.9985C181.124 69.2263 182.15 69.7958 183.015 70.2515C183.904 70.7299 184.77 71.2539 184.952 71.4134C185.134 71.5501 185.453 71.7551 185.635 71.8462C185.818 71.9146 186.296 72.188 186.66 72.4386C187.048 72.6892 187.503 72.9625 187.686 73.0537C188.255 73.3271 190.921 75.1952 193.222 76.9266C196.388 79.3415 199.555 82.3259 202.016 85.2192C205.046 88.7732 205 88.8188 205 83.0322C205 79.4554 204.932 78.3619 204.727 78.3619C204.567 78.3619 203.861 77.8379 203.177 77.2C199.851 74.1244 196.776 71.5273 195.204 70.4793C194.634 70.1148 193.472 69.3174 192.629 68.7251C191.764 68.1328 191.035 67.6543 190.989 67.6543C190.943 67.6543 190.511 67.381 190.032 67.062C189.554 66.7431 188.961 66.3786 188.711 66.2646C188.46 66.1507 187.959 65.8546 187.572 65.6267C187.207 65.3761 186.433 64.9205 185.863 64.6243C185.294 64.3054 184.473 63.8498 184.041 63.5992C183.608 63.3258 182.742 62.8473 182.104 62.5284C181.489 62.2094 180.054 61.4349 178.915 60.8197C177.798 60.2046 175.748 59.1111 174.358 58.4049C172.991 57.6986 170.941 56.6279 169.802 56.0355C168.685 55.4204 167.25 54.6686 166.612 54.3497C165.997 54.0307 164.813 53.3928 163.992 52.9372C163.172 52.4815 162.056 51.8664 161.486 51.5475C160.461 51.0007 159.937 50.7046 157.272 49.2009C156.52 48.7909 155.199 48.0163 154.31 47.4923C153.444 46.9911 152.556 46.4899 152.374 46.3988C152.191 46.3076 151.736 46.0342 151.348 45.7836C150.984 45.5558 150.414 45.2141 150.095 45.0546C149.776 44.8724 148.273 43.9611 146.724 43.027C145.197 42.1158 143.762 41.2272 143.534 41.1133C143.329 40.9767 142.509 40.4527 141.712 39.9059C140.914 39.3819 140.231 38.9491 140.185 38.9491C140.14 38.9491 139.821 38.6985 139.479 38.3795C139.001 37.9466 138.955 37.81 139.251 37.81C139.456 37.81 139.798 37.9011 140.026 38.015C140.231 38.1289 141.643 38.8124 143.147 39.5186C144.65 40.2476 146.906 41.3184 148.159 41.9107C151.143 43.346 152.67 44.0294 154.196 44.6445C154.88 44.9179 155.768 45.2597 156.133 45.4191C157.044 45.8292 158.251 46.2849 161.372 47.424C162.99 48.0163 163.856 48.3352 164.562 48.5175C164.949 48.6314 165.61 48.8364 166.043 48.9731C167.432 49.4743 169.506 50.0894 172.536 50.9096C173.287 51.1146 174.381 51.4336 174.951 51.6158C175.543 51.7981 176.204 51.9348 176.409 51.9348C176.636 51.9348 177.343 52.0715 177.981 52.2537C178.618 52.436 179.963 52.7549 180.965 52.96C184.565 53.7118 186 54.0307 187.23 54.3269C187.913 54.5091 189.212 54.8053 190.078 55.0103C190.966 55.1926 192.242 55.5343 192.926 55.7166C193.609 55.8988 194.725 56.2178 195.386 56.4C197.732 57.0379 199.213 57.4708 200.056 57.767C200.512 57.9492 201.218 58.0859 201.583 58.0859C202.266 58.0859 202.266 58.0859 202.107 56.9924C202.038 56.4 201.833 55.5343 201.651 55.0331C201.492 54.5547 201.355 53.9396 201.355 53.6662C201.355 53.4156 201.15 52.7777 200.922 52.2537C200.557 51.4564 200.375 51.2969 199.623 51.183C199.122 51.1146 198.165 50.9552 197.482 50.8185C196.798 50.6818 195.204 50.4084 193.951 50.2261C192.698 50.0211 190.852 49.7021 189.85 49.5427C188.848 49.3604 187.617 49.1782 187.116 49.1098C186.615 49.0415 185.59 48.882 184.838 48.7453C184.086 48.6086 182.651 48.3352 181.648 48.153C177.912 47.4467 176.545 47.1506 172.308 46.0798C169.574 45.3963 166.407 44.4623 165.405 44.0522C164.995 43.87 164.516 43.7333 164.334 43.7333C164.152 43.7333 163.673 43.5966 163.263 43.4143C162.853 43.2321 162.079 42.9359 161.555 42.7309C161.008 42.5258 160.142 42.2069 159.618 42.0018C159.071 41.7968 158.251 41.5006 157.796 41.3184C156.224 40.7488 154.994 40.2704 154.31 39.9515C153.946 39.792 152.715 39.2908 151.576 38.8351C146.61 36.7848 139.388 33.1852 136.768 31.4538C136.267 31.1121 135.697 30.7703 135.515 30.6792C135.15 30.5197 133.875 29.5857 131.255 27.5808C128.407 25.4166 123.896 20.6096 120.934 16.6227C115.512 9.28693 110.478 4.57104 105.465 2.13338C103.78 1.31323 103.051 1.06262 100.772 0.424728C98.7676 -0.12204 93.5733 -0.144821 91.3179 0.379166ZM90.7028 24.7559C91.6368 25.7355 92.6848 26.829 93.0038 27.2163C93.3455 27.5808 94.0062 28.3099 94.4846 28.8111C95.5781 29.9957 102.322 37.5594 103.575 39.0174C104.099 39.6325 105.033 40.6577 105.648 41.3184C106.24 41.9563 108.108 43.9611 109.771 45.7836C114.943 51.388 118.292 54.8053 122.37 58.6099C125.081 61.1387 125.514 61.731 125.035 62.3006C124.716 62.6879 122.825 63.5992 120.365 64.5332C119.864 64.7155 118.633 65.1939 117.631 65.604C114.282 66.9481 111.457 67.9733 110.113 68.315C109.749 68.4289 109.179 68.6112 108.86 68.7251C108.222 68.9985 106.491 69.4997 104.395 70.0237C102.641 70.4793 100.431 70.5021 100.431 70.0692C100.431 69.2263 101.57 68.3834 104.19 67.3126C104.577 67.1531 105.26 66.857 105.739 66.6519C106.217 66.4469 106.741 66.2874 106.924 66.2874C107.106 66.2874 107.584 66.1507 107.994 65.9685C108.404 65.7862 109.361 65.4673 110.113 65.2395C110.865 65.0344 111.89 64.7155 112.391 64.556C112.892 64.4193 113.918 64.1231 114.669 63.9409C115.421 63.7358 116.651 63.4169 117.426 63.2346C118.178 63.0296 119.226 62.8701 119.75 62.8701C120.41 62.8701 120.866 62.7107 121.299 62.3234L121.937 61.7994L120.57 60.4325C119.818 59.6806 118.679 58.6782 118.064 58.177C117.449 57.6986 116.538 56.924 116.036 56.4684C112.027 52.8688 109.976 50.9324 109.111 49.9755C108.541 49.3604 107.425 48.1302 106.605 47.2645C105.283 45.8748 102.048 42.1613 100.112 39.8376C98.6765 38.1289 93.9378 31.7272 92.3886 29.4262C88.0145 22.9789 87.4222 21.3386 90.7028 24.7559ZM71.4976 29.7224C71.657 29.9046 71.9076 30.0641 72.0443 30.0869C72.4088 30.0869 78.6283 34.8939 78.7422 35.2356C78.9473 35.9191 77.6715 35.4406 75.5072 34.0054C73.0012 32.3195 70.4496 30.0185 70.6774 29.6312C70.9052 29.2895 71.1558 29.3123 71.4976 29.7224ZM134.49 64.1687C135.629 64.556 137.36 66.0596 137.816 67.0164C137.93 67.3126 138.158 67.7455 138.317 67.9961C138.477 68.2467 139.001 69.158 139.502 70.0464C140.003 70.9122 140.527 71.8234 140.641 72.0285C140.778 72.2335 141.142 72.917 141.461 73.5093C141.803 74.1016 142.281 74.9674 142.532 75.4002C142.782 75.8331 143.261 76.6532 143.557 77.2228C143.876 77.7923 144.332 78.6125 144.605 79.0453C144.856 79.4782 145.152 80.0022 145.243 80.1844C145.334 80.3667 145.676 81.0274 146.04 81.6197C146.769 82.8499 146.815 83.2828 146.359 84.3307C146.177 84.7408 145.858 85.5382 145.653 86.1077C145.038 87.7025 143.921 90.0035 143.284 91.0059C142.441 92.3272 141.666 93.8992 141.666 94.3548C141.666 94.5599 142.213 95.0838 142.874 95.5167C144.104 96.3369 145.995 98.2278 145.995 98.6151C145.995 99.0935 145.448 99.1162 143.876 98.7973C141.507 98.2733 136.221 97.7721 131.756 97.6126C129.637 97.5443 125.741 97.3848 123.099 97.2709C120.479 97.157 116.446 97.0431 114.168 97.0431C110.136 97.0431 109.999 97.0203 109.749 96.5419C109.452 95.9951 109.635 92.7601 109.976 92.4184C110.09 92.3044 110.455 92.3728 110.819 92.555C112.186 93.2385 115.33 93.4435 127.086 93.6258C133.533 93.7169 139.001 93.6941 139.206 93.603C139.456 93.4663 139.616 92.9879 139.707 92.0994C139.798 91.3704 139.957 90.0946 140.071 89.2517C140.527 86.1989 140.276 84.6041 139.046 82.3487C136.358 77.4734 132.166 71.1855 130.207 69.0668C129.409 68.2467 128.976 68.1783 127.951 68.7023C125.24 70.1148 122.734 72.5297 119.34 76.9949C116.287 81.0501 113.006 84.3535 111.708 84.718C109.657 85.2648 109.111 83.8523 110.546 81.7108C110.979 81.0501 112.095 79.6377 113.029 78.5441C113.963 77.4506 115.649 75.3091 116.765 73.7827C120.205 68.9985 122.301 67.0848 125.901 65.3306C128.999 63.827 132.234 63.3941 134.49 64.1687ZM102.367 81.1413L102.937 81.3919L102.914 84.6269C102.891 87.3152 102.959 87.9759 103.278 88.4543C103.575 88.9327 103.643 89.4339 103.552 90.9375C103.438 93.5347 102.777 95.0383 101.41 95.9268C100.545 96.4963 100.043 96.4735 99.1321 95.7673C97.7424 94.7193 97.1045 92.9196 96.8995 89.525C96.7172 86.7001 96.6489 86.4039 96.0793 86.1077C95.5553 85.8116 95.1908 85.9938 93.7328 87.3152C92.7987 88.1581 91.0673 88.8416 89.8598 88.8416C88.7435 88.8416 88.7207 89.0466 89.8143 90.0035C90.361 90.5047 91.0673 91.4387 91.409 92.145C91.933 93.2841 92.0013 93.6714 92.0013 95.9268C92.0013 98.6606 91.7507 99.458 90.475 100.802C89.7687 101.577 88.174 102.693 87.2171 103.103C87.0349 103.171 86.5792 103.376 86.1919 103.536C85.8274 103.695 85.2579 103.946 84.9389 104.083C80.2003 106.11 71.9532 107.227 68.8549 106.247C66.2121 105.404 65.3692 104.584 65.3464 102.784C65.3464 100.665 67.1006 98.5239 71.0875 95.8356C73.2518 94.3776 78.6511 91.5754 79.3118 91.5754C79.5168 91.5754 79.7219 91.4843 79.813 91.3476C79.8813 91.2337 80.2686 91.0286 80.6787 90.9147C82.2962 90.4363 84.8706 89.4795 85.4401 89.1833C85.7591 89.0011 86.1692 88.8416 86.3514 88.8416C86.8754 88.8416 87.9006 87.7253 87.9006 87.1329C87.9006 86.814 88.1512 86.4267 88.5385 86.1533C89.2903 85.6293 91.2495 84.7408 91.6824 84.7408C91.8419 84.7408 92.3203 84.6041 92.7304 84.4219C93.1404 84.2396 93.9378 83.9207 94.5074 83.7156C95.0769 83.5106 95.8515 83.1917 96.216 83.0322C97.6057 82.4398 100.34 81.3463 101 81.1413C101.388 81.0046 101.706 80.8907 101.729 80.8907C101.752 80.8679 102.048 80.9818 102.367 81.1413ZM113.302 100.87C114.874 101.417 115.74 102.078 116.993 103.718C118.406 105.541 119.18 106.27 120.707 107.136C122.393 108.115 123.144 108.366 125.924 108.89C127.86 109.254 129.295 109.345 133.601 109.345C138.363 109.345 138.932 109.391 139.388 109.755C140.094 110.325 139.821 111.054 138.75 111.601C136.905 112.512 130.298 112.899 126.63 112.33C122.005 111.601 119.226 110.12 115.353 106.361C111.867 102.966 112.049 103.08 109.84 103.149C108.154 103.194 107.949 103.149 107.63 102.716C107.129 101.987 107.653 101.372 109.133 100.893C110.705 100.369 111.913 100.369 113.302 100.87Z" fill="#F0F8FF"/>
<path d="M27.7562 2.45235C26.5715 3.24972 23.7921 6.41642 22.7214 8.19341C22.5391 8.51236 22.1974 9.35529 21.9695 10.0615C21.5823 11.3373 21.5823 11.4285 21.9695 12.6815C22.1974 13.4105 22.6074 14.3218 22.9264 14.7318C23.2226 15.1191 23.6782 16.0076 23.9288 16.6683C24.3844 17.853 24.4072 18.3542 24.5211 35.6001L24.635 53.3017L25.1135 53.4384C25.3641 53.484 27.0727 53.5068 28.8953 53.484L32.1987 53.4156L32.3353 35.6457C32.5176 16.2354 32.4493 17.01 33.8617 14.9141C35.7982 12.0436 35.4109 9.97041 32.1075 5.36845C30.7406 3.45476 29.2826 2.04228 28.6902 2.06506C28.4852 2.06506 28.0751 2.24731 27.7562 2.45235Z" fill="#F0F8FF"/>
<path d="M24.8857 56.4228C23.8149 57.3797 23.5871 58.0176 23.5871 60.1135C23.5871 61.526 23.7238 62.3233 23.9744 62.8473C24.749 64.3054 24.6351 64.3509 20.5799 64.3509H16.9347L16.8664 65.3078C16.7981 66.1963 16.8892 66.3558 17.7777 67.2443C19.0762 68.52 20.6254 69.0212 23.2681 69.0212C25.4552 69.0212 26.2754 69.2491 26.4804 69.887C26.8677 71.1172 26.0703 71.3222 23.1542 70.7527C18.37 69.8186 17.0031 69.6136 16.6386 69.8642C16.1602 70.1376 16.0235 71.1172 16.3652 71.7551C16.912 72.7803 17.6182 72.9853 21.1266 73.122C24.8401 73.2815 26.002 73.6232 25.7742 74.4889C25.7058 74.7395 25.5691 75.0129 25.4552 75.0813C24.9768 75.3546 20.466 75.1724 19.6458 74.8307C19.1902 74.6484 18.2789 74.4889 17.6182 74.4889C15.7956 74.4889 15.5906 74.8307 15.4539 78.0885L15.34 80.754L7.77639 80.8679C3.63007 80.9362 0.144428 81.0729 0.0532998 81.164C-0.0378281 81.2552 -0.0150462 82.1892 0.144428 83.2144C0.303901 84.2624 0.417811 85.4926 0.417811 85.971C0.417811 86.9507 0.919015 88.0442 1.53413 88.3859C2.10368 88.6821 3.15165 88.6821 5.9994 88.3859C19.3952 86.9734 21.5823 86.7684 24.6123 86.7912C26.3209 86.7912 27.5511 86.8823 27.6423 87.019C27.9612 87.543 26.0703 87.9986 23.1998 88.067C18.8712 88.2037 13.1757 89.0694 10.5558 89.9807C9.48504 90.3452 9.41669 90.4135 9.43947 91.1425C9.46226 92.1677 9.66729 92.7145 12.105 98.1822C12.6517 99.4124 13.039 100.392 13.6997 102.169C15.1122 106.019 16.388 112.375 16.8436 117.889C16.9575 119.392 17.117 120.782 17.1853 120.941C17.2309 121.124 17.3904 123.652 17.5271 126.523C17.641 129.416 17.8232 133.927 17.9599 136.57C18.0738 139.19 18.1878 145.204 18.1878 149.92V158.486L20.3976 160.514C21.605 161.63 22.6986 162.655 22.8353 162.769C24.0427 163.908 26.2526 165.617 26.526 165.617C26.8221 165.617 26.8449 165.047 26.731 161.243C26.6399 158.828 26.5032 150.649 26.3893 143.063C26.1159 124.268 25.7058 119.369 23.9972 113.879C23.8149 113.287 23.6554 112.649 23.6554 112.444C23.6554 112.261 23.5187 111.76 23.3365 111.35C22.9492 110.393 22.5391 109.209 22.2885 108.32C22.1746 107.933 21.8784 107.067 21.605 106.384C21.3317 105.7 21.0355 104.812 20.9216 104.447C20.8077 104.06 20.5115 103.194 20.2381 102.511C19.2813 100.164 19.2813 100.187 21.7417 97.4987C23.7693 95.2661 25.683 92.6234 26.7082 90.6186C26.936 90.1401 27.3917 89.5934 27.6878 89.4111C28.2118 89.0466 28.2346 89.0694 28.713 90.1401C29.3509 91.5982 31.0596 93.8308 34.1351 97.2253C36.9373 100.301 36.8462 100.05 35.9577 102.283C35.6843 102.966 35.3881 103.832 35.2742 104.219C35.1603 104.584 34.9553 105.267 34.7958 105.7C34.6591 106.133 34.4085 106.862 34.249 107.295C34.0896 107.728 33.839 108.457 33.7023 108.89C33.5428 109.323 33.315 109.983 33.2239 110.371C33.1099 110.735 32.8138 111.76 32.5404 112.649C32.2898 113.514 31.9936 114.654 31.8797 115.155C31.7658 115.656 31.5836 116.522 31.4469 117.091C29.556 124.974 29.032 136.638 29.6015 158.851C29.8293 168.328 29.8521 168.465 30.3305 168.875C31.0596 169.444 37.1196 173.477 37.7347 173.818C38.0309 173.955 38.3498 174.023 38.4181 173.932C38.5093 173.841 38.646 165.252 38.7143 154.841C38.8966 130.669 39.4433 117.046 40.423 112.58C40.6052 111.783 40.7419 110.872 40.7419 110.553C40.7419 110.211 40.9014 109.391 41.1064 108.685C41.2887 107.978 41.6076 106.839 41.8127 106.156C41.9949 105.472 42.2911 104.561 42.4733 104.151C42.6556 103.741 42.7923 103.24 42.7923 103.058C42.7923 102.852 42.929 102.42 43.1112 102.101C43.2935 101.759 43.5897 101.03 43.8175 100.46C44.0225 99.8908 44.3415 99.0935 44.5237 98.6834C44.706 98.2961 45.0021 97.5899 45.1844 97.157C45.3666 96.7241 45.6856 96.0179 45.8679 95.6078C46.0501 95.2205 46.3235 94.4004 46.483 93.808C46.7336 92.7829 46.7336 92.6917 46.2096 92.145C45.9134 91.826 45.5033 91.5754 45.3211 91.5754C44.7971 91.5754 41.7443 90.9147 40.4002 90.5047C39.0105 90.0946 37.8714 89.6617 36.0716 88.8416C33.2694 87.5886 32.9733 87.4746 32.2442 87.4746C31.4013 87.4746 29.9888 86.814 29.8521 86.3583C29.7382 86.0166 30.7178 86.0622 34.4769 86.5406C36.6867 86.8368 41.3342 87.2241 45.6628 87.4746C47.417 87.5886 49.1029 87.7253 49.4218 87.8164C49.718 87.8847 51.0394 88.0442 52.3607 88.1581C53.6821 88.272 54.9579 88.3859 55.1857 88.4315C55.9603 88.5454 56.2337 87.5886 56.2337 84.8092C56.2337 82.5765 56.1881 82.212 55.8236 82.0298C55.5958 81.9158 53.3859 81.7108 50.8799 81.5741C41.5621 81.0501 38.3954 80.8451 38.1903 80.7312C38.0992 80.6628 38.0081 80.3439 38.0081 80.0022C38.0081 79.6604 37.8486 78.5897 37.6663 77.6101C37.4841 76.6304 37.3246 74.58 37.3246 73.0537C37.3018 68.6112 36.2311 65.604 34.6363 65.604C34.2946 65.604 33.7023 65.3989 33.315 65.1711C32.4493 64.6471 32.3126 64.0092 32.3126 60.4324C32.3126 57.653 32.1303 56.8785 31.4013 56.4912C31.1279 56.3545 29.6699 56.195 28.1435 56.1266C25.683 56.0127 25.3185 56.0583 24.8857 56.4228Z" fill="#F0F8FF"/>
<path d="M25.4552 98.2049C24.1794 99.5263 23.6326 100.255 23.5187 100.825C23.3593 101.736 23.5871 103.536 23.9744 104.333C24.1338 104.652 24.43 105.267 24.635 105.7C24.8173 106.133 25.2502 107.113 25.5919 107.864C25.9336 108.616 26.3893 109.641 26.6171 110.143C26.8449 110.644 27.0727 111.236 27.1411 111.441C27.2322 111.669 27.46 111.851 27.6878 111.851C27.984 111.851 28.4852 111.054 29.4876 109.049C30.2394 107.523 31.3557 105.313 31.9481 104.151L33.0188 102.055L31.9481 100.392C31.3329 99.5035 30.3078 98.2049 29.6471 97.5442C27.984 95.8584 27.665 95.9039 25.4552 98.2049Z" fill="#F0F8FF"/>
<path d="M44.8654 111.715C44.5693 112.079 44.2959 113.446 43.8403 117.091C43.1796 122.194 42.9973 124.085 42.7923 127.001C42.6784 128.619 42.4733 130.829 42.3366 131.899C42.2227 132.97 42.1088 135.043 42.1088 136.501C42.1088 139.418 42.4733 141.058 43.2935 141.741C43.7263 142.129 43.7947 142.129 44.4326 141.741C45.1388 141.331 46.4602 139.668 47.2803 138.165C48.7384 135.453 49.1485 134.77 49.718 134.155C50.6976 133.13 50.9938 133.266 50.9938 134.793C50.9938 136.274 50.5837 137.663 49.4674 139.987C48.2144 142.584 47.1664 144.042 44.5465 146.822L42.8378 148.644L43.4302 149.305C43.7719 149.647 44.4554 150.216 44.9566 150.558C45.7767 151.082 46.0729 151.15 48.146 151.15C50.242 151.15 50.4926 151.105 51.3811 150.512C52.5658 149.761 53.0214 149.077 53.1809 147.938C53.477 145.705 53.5682 145.637 55.0718 146.753C56.7121 147.938 57.6006 148.303 58.9675 148.303C60.0382 148.303 60.3344 148.211 60.7673 147.756L61.2913 147.209L61.2685 137.139C61.2229 124.883 60.9495 122.559 59.5598 122.194C58.8536 122.035 58.284 122.331 56.507 123.857C55.7097 124.518 54.9351 125.065 54.7756 125.065C54.6161 125.065 54.2516 124.632 53.9555 124.085C53.6593 123.561 52.748 122.103 51.9279 120.85C51.1077 119.597 50.3787 118.458 50.3331 118.344C50.2876 118.208 49.9686 117.752 49.6497 117.319C49.3307 116.886 48.9662 116.339 48.8295 116.134C47.8499 114.494 45.5489 111.396 45.2983 111.396C45.2072 111.396 45.0021 111.532 44.8654 111.715Z" fill="#F0F8FF"/>
<path d="M95.9882 121.374C94.5302 122.445 94.3024 122.582 92.2292 123.584C90.2016 124.586 89.4726 124.905 88.1968 125.384C87.65 125.589 86.8299 125.908 86.3742 126.067C85.8958 126.25 84.9617 126.477 84.2783 126.568C82.8202 126.751 82.2051 127.275 82.2051 128.345C82.2051 128.778 82.0001 129.348 81.7723 129.644C81.3394 130.168 81.3394 130.191 80.861 129.758C80.4281 129.371 80.2687 129.348 79.4029 129.598C78.879 129.758 78.1499 130.009 77.7626 130.191C76.3046 130.829 75.2111 131.193 73.9353 131.444C71.452 131.922 68.9005 130.92 66.1438 128.345C64.1162 126.455 63.091 125.657 62.9316 125.817C62.8632 125.885 62.9088 128.733 63.0455 132.173C63.205 136.205 63.205 139.6 63.0683 141.81C62.8404 145.5 62.4531 149.145 62.2481 149.487C62.1798 149.578 62.0431 150.467 61.9292 151.446C61.8153 152.403 61.633 153.861 61.4963 154.681C61.3824 155.502 61.109 157.438 60.904 159.01C60.1066 165.184 59.5371 168.26 58.6941 170.971C58.2613 172.337 57.1222 174.57 56.5754 175.094C56.4387 175.254 55.5958 176.78 54.7528 178.489C52.9986 181.974 52.9986 181.86 55.0946 182.567C56.1653 182.931 56.4615 182.886 56.4615 182.339C56.4615 181.883 57.3272 180.197 57.5778 180.197C57.8968 180.197 58.0562 180.835 58.0562 182.248V183.592L59.1042 184.07C59.6965 184.321 60.3116 184.526 60.4711 184.526C60.6306 184.526 61.109 184.663 61.5191 184.845C62.362 185.187 64.0251 185.665 68.6043 186.895C70.6774 187.442 75.4844 188.422 78.6284 188.923C80.9293 189.287 81.2027 189.173 80.8382 187.92C80.7015 187.487 80.4965 186.121 80.3826 184.868C80.2459 183.615 80.0864 182.157 80.0181 181.633L79.8814 180.676L82.9114 177.737C87.9234 172.884 90.8623 170.538 95.0997 167.963C95.8743 167.485 100.043 165.48 101.114 165.047C101.684 164.842 102.39 164.546 102.709 164.432C104.418 163.749 109.84 162.655 111.548 162.655C112.824 162.655 115.786 163.247 116.948 163.726C118.793 164.5 120.524 166.118 121.299 167.781C121.481 168.146 121.732 168.624 121.891 168.829C122.324 169.467 121.96 169.945 121.003 169.945C118.747 169.945 113.371 169.034 112.209 168.465C110.842 167.781 108.997 167.553 106.992 167.872C104.759 168.214 103.461 168.578 100.157 169.854C98.9954 170.31 95.1909 172.178 94.0518 172.884C93.6189 173.135 93.0949 173.431 92.9127 173.522C92.3887 173.773 88.9486 176.21 88.1057 176.939C84.7567 179.787 83.3898 181.427 82.7747 183.341C82.4102 184.457 82.4102 184.64 82.7747 186.303C83.3214 188.786 83.572 189.31 84.2327 189.583C84.5517 189.697 86.4426 189.857 88.4018 189.925C91.3635 190.039 92.0014 189.994 92.0925 189.743C92.1609 189.561 92.3659 188.854 92.5709 188.171C94.0745 182.817 104.372 176.757 114.214 175.436C116.606 175.094 118.383 175.117 120.479 175.504C123.441 176.028 124.078 176.461 128.361 180.835C131.665 184.207 131.483 184.116 133.578 183.318C134.763 182.863 134.718 182.43 133.328 180.972C132.007 179.582 129.387 176.438 128.794 175.527C128.065 174.433 126.858 171.312 126.858 170.56C126.858 170.059 125.468 166.984 124.762 165.89C124.42 165.343 124.124 164.819 124.124 164.728C124.124 164.295 121.162 161.379 120.342 160.992C116.902 159.329 114.92 158.782 111.936 158.646C109.361 158.509 106.901 157.894 105.215 156.937C105.033 156.823 104.668 156.641 104.418 156.527C103.62 156.185 103.051 155.388 103.301 154.978C103.78 154.226 105.671 153.725 108.154 153.725C110.432 153.725 110.569 153.747 111.526 154.431C112.46 155.092 113.166 155.297 113.462 155C113.621 154.864 113.143 152.95 112.801 152.289C112.665 152.039 112.414 151.538 112.255 151.173C112.072 150.809 111.708 150.376 111.434 150.193C110.91 149.852 110.455 149.897 106.878 150.717C106.103 150.9 104.737 151.036 103.825 151.036C102.299 151.036 102.162 150.991 101.547 150.33C100.841 149.556 100.75 149.1 100.864 146.138C100.932 144.133 101.547 141.764 102.777 138.62C103.256 137.367 105.055 133.631 105.511 132.947C105.648 132.72 106.377 131.649 107.106 130.578C108.951 127.799 108.837 127.07 106.4 126.546C105.716 126.409 102.96 124.7 102.367 124.062C101.934 123.584 98.7221 121.032 98.2209 120.782C97.4691 120.372 97.2185 120.44 95.9882 121.374ZM99.3144 151.515C101.023 152.107 101.365 153.109 100.203 154.089C99.36 154.795 98.6309 154.978 95.1909 155.456C86.3287 156.686 83.162 157.598 78.9701 160.104C77.4665 160.992 74.6187 163.703 73.6619 165.161C72.4317 166.984 71.1559 169.877 70.6091 171.996C70.3357 173.044 69.8117 176.62 69.47 179.856C69.1966 182.475 68.6271 184.298 68.0575 184.298C67.7841 184.298 67.5791 184.093 67.488 183.683C67.4196 183.318 67.2601 182.749 67.1462 182.407C66.7589 181.177 66.6678 178.944 66.9184 177.236C67.0779 176.302 67.2829 174.912 67.3968 174.16C67.5107 173.408 67.8297 172.064 68.0803 171.198C68.3537 170.31 68.6498 169.285 68.7638 168.92C69.6978 165.731 71.6115 162.04 73.3202 160.081C74.4365 158.828 77.4665 156.755 79.4713 155.912C80.1092 155.638 81.4078 155.069 81.7951 154.886C82.4557 154.568 85.2351 153.588 87.9006 152.768C88.8347 152.494 90.4294 152.13 93.3683 151.515C94.8719 151.219 98.4259 151.219 99.3144 151.515Z" fill="#F0F8FF"/>
<path d="M111.594 180.311C108.085 181.086 103.051 183.569 100.34 185.87C98.6082 187.305 96.535 189.538 96.6717 189.743C96.8767 190.107 102.777 190.062 106.24 189.652C111.731 189.014 115.285 188.422 118.428 187.67C118.998 187.533 119.864 187.351 120.365 187.26C121.664 187.009 123.418 186.553 124.42 186.212C124.876 186.029 125.468 185.893 125.719 185.893C126.789 185.893 125.855 184.731 123.19 182.772C119.864 180.334 115.604 179.423 111.594 180.311Z" fill="#F0F8FF"/>
</svg>
